<?xml version="1.0" standalone="no"?>
<!DOCTYPE svg PUBLIC "-//W3C//DTD SVG 20010904//EN"
 "http://www.w3.org/TR/2001/REC-SVG-20010904/DTD/svg10.dtd">
<svg version="1.0" xmlns="http://www.w3.org/2000/svg"
 width="499.000000pt" height="499.000000pt" viewBox="0 0 499.000000 499.000000"
 preserveAspectRatio="xMidYMid meet">
<metadata>
Created by potrace 1.14, written by Peter Selinger 2001-2017
</metadata>
<g transform="translate(0.000000,499.000000) scale(0.100000,-0.100000)"
fill="#000000" stroke="none">
<path d="M2329 4986 c-2 -2 -42 -7 -89 -10 -47 -4 -92 -9 -100 -11 -8 -3 -31
-6 -50 -9 -19 -2 -80 -14 -134 -26 -368 -81 -725 -252 -1024 -491 -123 -98
-329 -310 -423 -434 -282 -375 -455 -818 -497 -1270 -15 -169 -6 -492 18 -628
5 -29 12 -68 15 -87 3 -19 8 -43 11 -52 3 -9 6 -25 8 -35 16 -81 77 -272 123
-383 130 -316 297 -564 548 -816 297 -297 609 -488 1010 -618 94 -30 279 -75
344 -82 25 -3 48 -7 51 -9 27 -17 464 -26 600 -12 86 8 207 26 250 37 19 5 46
11 60 13 133 24 365 106 542 193 266 131 448 263 663 478 258 259 432 522 559
845 65 164 124 377 142 506 3 28 8 59 10 70 19 90 25 419 11 589 -4 55 -9 102
-11 105 -2 3 -7 29 -11 56 -17 128 -76 342 -141 506 -64 164 -217 447 -293
542 -6 6 -40 50 -77 97 -74 93 -279 305 -350 360 -25 19 -58 45 -72 58 -64 54
-273 186 -390 245 -280 142 -535 220 -857 262 -47 6 -441 16 -446 11z m367
-130 c49 -4 115 -11 147 -17 32 -5 70 -12 85 -14 49 -8 124 -25 166 -37 47
-13 41 -12 86 -22 19 -5 41 -12 50 -16 8 -5 44 -18 80 -30 136 -47 327 -141
467 -230 218 -141 405 -312 605 -558 9 -11 25 -33 35 -49 9 -15 20 -30 23 -33
3 -3 18 -25 34 -50 16 -25 38 -57 48 -72 10 -15 23 -38 28 -50 6 -13 22 -43
37 -68 49 -85 162 -358 178 -430 1 -8 12 -46 24 -85 11 -38 27 -110 36 -160 8
-49 17 -101 20 -115 24 -122 24 -491 -1 -650 -6 -41 -22 -137 -28 -165 -23
-115 -106 -375 -127 -401 -6 -8 -8 -14 -5 -14 4 0 1 -12 -7 -27 -7 -16 -26
-55 -42 -88 -31 -66 -95 -184 -126 -230 -10 -16 -22 -38 -25 -47 -4 -10 -9
-18 -13 -18 -4 0 -15 -14 -25 -31 -37 -62 -183 -237 -275 -329 -99 -98 -292
-260 -310 -260 -6 0 -11 -3 -11 -8 0 -7 -102 -73 -172 -112 -66 -36 -238 -122
-243 -121 -3 1 -18 -5 -34 -14 -24 -12 -190 -75 -198 -75 -2 -1 -8 -3 -15 -5
-7 -2 -31 -9 -53 -14 -22 -5 -69 -17 -105 -26 -36 -9 -78 -18 -95 -20 -16 -1
-41 -5 -55 -9 -190 -44 -605 -38 -835 11 -11 2 -37 7 -57 10 -21 3 -38 8 -38
12 0 3 -10 7 -22 7 -13 1 -48 9 -78 18 -30 9 -64 18 -75 21 -11 2 -29 9 -40
14 -11 5 -42 17 -70 26 -74 26 -279 121 -340 158 -11 7 -42 25 -70 42 -27 16
-52 32 -55 36 -3 3 -18 13 -35 22 -16 8 -78 54 -137 101 -290 233 -513 509
-657 811 -78 164 -139 321 -156 402 -2 10 -11 45 -20 78 -58 212 -80 488 -62
760 7 94 9 112 22 175 3 14 7 41 9 60 14 109 77 325 143 485 60 146 209 413
259 462 8 8 14 18 14 22 0 4 8 16 18 27 10 10 24 28 32 40 61 87 255 284 370
376 41 33 84 67 95 76 34 29 134 92 144 92 5 0 11 4 13 8 6 16 165 103 184
101 4 0 10 3 13 8 5 8 94 53 105 53 2 0 19 6 37 14 19 8 39 15 44 16 6 1 15 5
20 10 20 16 220 75 340 101 85 18 85 18 135 25 25 3 48 8 51 10 3 2 57 6 120
10 63 3 115 7 116 8 4 3 198 -2 279 -8z"/>
<path d="M2478 4816 c-1 -2 -57 -6 -123 -9 -109 -6 -210 -19 -350 -47 -27 -6
-59 -12 -70 -14 -41 -8 -256 -79 -320 -106 -86 -36 -310 -150 -340 -173 -5 -4
-32 -22 -60 -39 -69 -44 -268 -205 -335 -270 -53 -53 -91 -94 -157 -170 -17
-20 -34 -34 -38 -30 -4 4 -5 3 -3 -3 1 -5 -16 -35 -38 -65 -22 -30 -54 -75
-70 -100 -16 -25 -32 -47 -35 -50 -3 -3 -14 -20 -23 -38 -9 -18 -24 -36 -31
-39 -8 -3 -13 -8 -10 -13 2 -4 -24 -63 -59 -131 -34 -68 -65 -133 -68 -144 -4
-11 -16 -47 -28 -80 -24 -64 -69 -207 -75 -240 -3 -11 -7 -31 -10 -45 -3 -14
-7 -35 -10 -48 -2 -13 -6 -31 -9 -40 -3 -9 -6 -34 -8 -54 -1 -21 -5 -38 -8
-38 -3 0 -5 -12 -6 -27 -1 -16 -4 -62 -8 -103 -6 -77 -7 -320 -2 -400 5 -57
17 -153 21 -160 2 -3 6 -30 10 -60 4 -30 9 -58 11 -61 2 -3 6 -21 9 -39 8 -46
39 -153 63 -222 11 -32 18 -58 16 -58 -3 0 2 -10 10 -22 9 -12 16 -28 16 -34
0 -7 16 -48 35 -91 37 -80 40 -87 95 -188 38 -69 137 -221 162 -249 10 -11 18
-23 18 -26 0 -4 10 -18 22 -32 13 -13 43 -48 68 -77 99 -115 345 -341 371
-341 6 0 7 -5 4 -10 -3 -6 -2 -10 4 -10 6 0 59 -32 118 -71 160 -105 393 -216
558 -265 106 -31 233 -62 305 -74 41 -6 89 -14 105 -17 63 -10 126 -13 290
-12 245 1 314 3 309 10 -3 6 72 20 127 24 14 1 30 4 36 8 5 3 25 9 44 12 19 3
58 13 87 21 29 9 60 13 68 10 9 -3 12 -1 9 4 -3 6 -1 10 5 10 11 0 178 61 240
87 93 40 376 198 400 223 3 3 32 25 65 49 187 138 408 370 532 557 7 11 23 35
36 54 36 55 156 273 156 285 1 3 8 22 17 43 9 20 18 42 20 47 1 6 19 55 39
110 20 55 39 109 41 120 2 11 14 67 28 125 14 58 28 127 31 154 4 27 9 58 11
70 12 53 19 417 9 506 -5 53 -14 119 -20 143 -2 12 -7 40 -10 62 -3 22 -7 47
-10 55 -2 8 -6 26 -9 40 -2 14 -10 45 -17 70 -7 25 -13 47 -14 50 -26 95 -54
171 -102 283 -13 31 -21 62 -17 69 4 6 3 9 -2 5 -5 -3 -34 43 -64 101 -30 59
-57 109 -60 112 -3 3 -25 34 -50 70 -130 194 -273 354 -450 505 -57 48 -244
185 -254 185 -5 0 -66 36 -131 78 -11 6 -29 16 -40 21 -11 5 -49 22 -85 39
-129 59 -308 123 -382 137 -21 4 -38 11 -38 17 0 5 -3 7 -8 4 -4 -2 -54 5
-112 16 -144 27 -139 26 -290 33 -74 4 -140 8 -147 10 -6 2 -13 2 -15 1z
m-744 -1762 c-1 -5 -5 -47 -8 -93 -4 -46 -9 -100 -11 -120 -2 -20 -7 -61 -10
-91 l-5 -55 33 35 c17 19 46 51 62 72 30 36 31 36 124 43 l94 6 -15 -23 c-9
-13 -52 -61 -97 -108 -44 -47 -80 -87 -81 -90 0 -6 43 -55 121 -138 33 -35 57
-67 54 -72 -8 -13 -78 -47 -112 -54 -30 -7 -34 -4 -109 94 -42 55 -81 97 -85
93 -11 -12 -14 -96 -4 -112 5 -10 4 -12 -3 -7 -7 4 -12 3 -12 -2 0 -12 -151
-62 -163 -55 -7 4 -4 86 8 183 2 19 7 74 11 122 3 48 7 100 9 115 2 15 7 71
11 123 3 52 10 99 14 104 10 10 150 45 165 41 6 -1 9 -6 9 -11z m1816 -44 c0
-8 -28 -72 -87 -200 -22 -47 -75 -164 -119 -262 -59 -131 -82 -174 -91 -166
-7 5 -18 6 -24 2 -8 -4 -9 -3 -5 4 6 10 -7 17 -17 10 -4 -4 -37 29 -37 36 0 3
16 41 36 83 20 43 46 103 59 133 13 30 42 95 64 143 23 49 41 90 41 92 0 1 18
42 39 89 l40 85 50 -21 c28 -11 51 -24 51 -28z m-2336 -70 c4 -36 9 -79 12
-96 l6 -31 -119 -43 c-65 -24 -122 -46 -127 -51 -4 -4 50 -36 120 -71 71 -35
128 -68 127 -74 -9 -35 -73 -189 -80 -191 -9 -3 -400 221 -420 240 -6 7 -14
57 -17 112 l-6 100 107 42 c60 22 117 44 128 49 11 4 47 17 80 29 147 56 170
63 176 57 4 -4 10 -36 13 -72z m2741 45 c33 -13 114 -43 180 -68 66 -25 141
-54 166 -65 l47 -20 -5 -79 c-2 -43 -5 -89 -7 -103 -2 -21 -35 -44 -212 -147
-115 -68 -213 -121 -219 -120 -5 2 -21 35 -36 73 -14 38 -31 80 -38 93 -7 13
-9 27 -4 32 4 4 62 36 128 70 66 34 121 63 123 64 2 2 -23 13 -55 24 -32 12
-89 33 -126 48 l-68 25 7 72 c4 39 8 78 10 86 1 8 3 23 3 33 1 21 8 20 106
-18z m-1530 -227 c10 -62 19 -120 20 -128 2 -8 4 -21 4 -29 1 -19 11 -9 15 15
10 48 55 216 59 221 9 9 148 40 151 34 2 -3 7 -28 11 -56 4 -27 9 -57 10 -65
11 -65 18 -127 16 -140 -2 -10 1 -12 8 -5 6 6 27 69 46 140 20 71 37 130 38
131 6 6 142 -35 145 -44 4 -14 -137 -403 -152 -418 -19 -19 -149 -46 -157 -33
-4 7 -17 63 -29 127 -13 64 -26 108 -30 101 -4 -8 -18 -53 -30 -102 l-23 -87
-41 -11 c-23 -5 -60 -16 -83 -24 l-43 -14 -10 41 c-11 40 -86 349 -96 400 -6
24 -3 28 32 37 22 5 55 14 74 19 19 5 38 8 41 6 4 -2 14 -54 24 -116z m-1267
-619 c-2 -12 -12 -27 -23 -33 -11 -6 -22 -14 -25 -17 -3 -3 -21 -14 -40 -24
-19 -10 -54 -32 -77 -50 -41 -31 -42 -33 -24 -50 18 -15 28 -47 46 -143 8 -40
50 -92 75 -92 10 0 22 9 25 21 9 27 0 35 -20 19 -21 -17 -29 -7 -15 19 13 26
56 28 69 3 14 -26 8 -51 -17 -77 -22 -23 -79 -38 -88 -23 -3 4 -13 8 -24 8
-21 0 -86 85 -96 127 -4 15 -8 48 -8 73 -1 38 -4 45 -22 48 -26 4 -42 -29 -40
-86 1 -42 1 -42 -34 -42 -19 0 -50 -4 -68 -9 -37 -11 -38 -9 -13 27 19 25 58
157 68 228 3 18 0 35 -6 38 -26 16 -6 23 64 23 l74 -1 -30 -53 c-34 -58 -38
-100 -7 -70 9 9 21 17 27 17 6 0 26 14 44 30 19 17 39 30 43 31 5 0 32 18 59
39 57 45 88 51 83 19z m1984 2 c41 -1 94 -59 96 -104 1 -19 2 -39 4 -43 6 -22
-16 -92 -38 -122 -67 -87 -219 -100 -274 -23 -35 50 -28 137 17 216 15 26 123
84 148 80 11 -2 32 -4 47 -4z m501 0 c34 -1 67 -33 67 -66 0 -53 -77 -87 -114
-49 -20 20 -21 44 -1 44 8 0 15 -4 15 -9 0 -14 32 -23 43 -12 5 5 6 18 2 30
-5 17 -14 21 -49 21 -43 0 -57 -9 -69 -43 -8 -22 44 -77 72 -77 34 -1 75 -96
54 -125 -50 -65 -187 -78 -235 -21 -23 28 -23 53 2 66 17 9 20 7 26 -15 8 -34
37 -48 84 -40 40 7 60 32 38 47 -27 18 -73 42 -83 43 -19 0 -53 64 -50 96 5
62 77 120 140 114 17 -2 42 -4 58 -4z m-1646 -15 c-4 -13 -42 -33 -77 -40 -30
-6 -51 -57 -71 -166 -16 -90 -25 -115 -38 -112 -6 1 -27 -4 -45 -12 -19 -8
-37 -12 -39 -10 -3 3 2 29 10 57 42 144 59 223 52 231 -5 6 -29 9 -54 7 -47
-2 -53 4 -32 32 14 18 40 21 190 23 76 1 107 -2 104 -10z m493 -1 c8 -9 10
-25 5 -42 -10 -35 -12 -171 -4 -184 5 -9 49 52 49 67 0 3 10 26 21 52 12 26
27 63 34 82 l12 35 74 3 c52 1 70 -1 59 -8 -8 -5 -25 -10 -37 -10 -24 0 -60
-40 -70 -79 -11 -43 -95 -204 -119 -228 -20 -20 -27 -21 -53 -12 -17 6 -34 16
-38 22 -3 5 -7 57 -8 114 -1 57 -4 106 -7 108 -2 3 -13 -12 -24 -33 -48 -88
-119 -208 -129 -214 -15 -11 -28 -9 -48 6 -15 11 -18 35 -22 161 -3 81 -8 151
-10 155 -3 4 31 8 75 8 83 -1 97 -7 55 -26 -20 -9 -25 -19 -26 -49 -1 -21 -3
-57 -4 -80 -2 -24 -2 -43 0 -43 2 0 16 22 32 50 15 27 31 50 36 50 4 0 7 5 7
11 0 6 12 28 28 49 24 35 36 42 88 49 6 0 17 -6 24 -14z m1658 1 c39 -8 105
-60 118 -92 11 -26 10 -36 -5 -70 -22 -49 -77 -111 -115 -131 -31 -16 -48 -19
-194 -28 l-94 -5 30 30 c17 17 33 38 36 48 2 9 14 57 26 106 21 84 21 99 6
137 -7 15 2 16 81 13 48 -2 98 -5 111 -8z m-2632 -26 c-13 -16 -34 -60 -45
-97 -12 -37 -26 -82 -32 -100 -10 -33 1 -73 21 -73 6 0 10 -3 10 -7 0 -5 -36
-8 -80 -8 -75 -1 -78 0 -63 17 9 10 13 18 10 18 -4 0 2 24 12 53 28 77 44 153
39 191 l-4 33 79 1 78 1 -25 -29z m153 -548 c-6 -15 -10 -29 -10 -32 1 -17
-23 -86 -33 -92 -18 -12 -23 -9 -36 22 -22 53 -37 56 -51 11 -13 -43 -16 -46
-38 -32 -12 8 -12 18 4 68 28 89 53 97 86 26 l21 -48 14 54 c18 68 22 75 39
61 11 -9 11 -18 4 -38z m845 -22 c-9 -29 -18 -62 -20 -73 -8 -46 -37 -44 -58
4 -10 21 -21 39 -26 39 -5 0 -14 -18 -20 -40 -6 -22 -14 -40 -18 -40 -19 1
-34 20 -29 36 11 35 32 89 40 102 10 15 47 16 47 2 0 -16 30 -84 35 -79 2 3 7
20 10 39 8 44 34 85 46 73 5 -5 3 -30 -7 -63z m-1201 46 c3 -8 3 -24 0 -36 -5
-20 -4 -21 15 -11 11 6 24 16 27 21 3 6 19 17 35 25 48 25 44 -1 -5 -36 -53
-38 -53 -56 3 -106 35 -32 35 -33 11 -33 -26 0 -57 27 -79 69 l-13 25 -19 -37
c-17 -35 -48 -51 -48 -26 0 23 32 134 42 147 14 16 25 15 31 -2z m948 -10 c-6
-7 -15 -36 -22 -64 -10 -51 -30 -82 -51 -82 -6 0 -8 11 -6 25 10 52 -42 57
-73 6 -23 -39 -41 -33 -29 10 5 16 6 37 3 45 -3 8 0 14 6 14 6 0 11 9 11 20 0
18 36 47 46 37 3 -2 0 -16 -5 -30 -5 -14 -7 -28 -4 -31 11 -11 50 -6 61 7 11
12 12 17 12 41 0 8 10 16 23 18 29 5 40 -1 28 -16z m581 -4 c13 -11 15 -19 7
-33 -5 -11 -16 -19 -23 -19 -18 0 -40 27 -27 34 5 3 11 1 13 -6 3 -9 6 -9 12
0 4 7 -3 14 -20 18 -36 9 -52 -15 -24 -36 65 -48 63 -45 51 -67 -14 -27 -43
-37 -86 -29 -22 4 -36 14 -40 27 -8 23 2 39 13 23 10 -16 45 -32 60 -27 20 8
14 20 -17 33 -27 11 -40 27 -47 57 -3 16 18 32 53 42 32 9 50 5 75 -17z m408
10 c31 -25 32 -95 1 -123 -56 -52 -144 -22 -135 46 5 38 42 81 76 88 13 2 26
5 29 6 4 0 17 -7 29 -17z m181 -10 c0 -4 2 -15 4 -24 2 -10 -5 -20 -16 -23
-23 -8 -39 1 -39 22 0 13 2 13 17 2 14 -12 16 -12 11 1 -6 20 -42 24 -57 6
-10 -11 -8 -17 11 -30 12 -9 28 -16 35 -16 7 0 13 -3 14 -7 0 -5 2 -16 4 -26
4 -21 -31 -47 -65 -47 -26 0 -70 32 -70 50 0 14 5 13 42 -9 17 -11 35 -18 40
-15 16 10 7 25 -21 35 -15 6 -33 21 -39 35 -10 21 -9 27 8 42 11 9 30 20 43
23 22 6 76 -8 78 -19z m147 5 c15 -11 16 -43 2 -52 -14 -8 -50 4 -50 17 0 5 7
7 16 4 10 -4 14 -1 12 6 -6 18 -53 17 -53 -1 0 -8 9 -19 20 -25 70 -40 57 -96
-23 -96 -34 0 -81 43 -61 55 7 5 17 1 24 -8 13 -18 65 -24 65 -8 0 5 -12 14
-28 20 -33 14 -54 44 -46 66 15 38 86 51 122 22z m-2654 0 c9 -7 17 -17 16
-22 -2 -6 -2 -23 -1 -40 l1 -29 17 24 c9 14 21 28 26 31 5 3 8 9 7 13 -3 20
19 37 47 34 l31 -3 -22 -75 c-15 -53 -26 -76 -38 -78 -21 -4 -23 16 -9 66 13
43 -2 33 -35 -24 -15 -25 -31 -43 -38 -41 -6 2 -16 23 -22 48 l-11 44 -13 -42
c-11 -36 -35 -62 -47 -50 -6 7 39 142 51 149 15 10 20 10 40 -5z m292 -74 c1
-46 -2 -83 -6 -83 -11 0 -27 22 -31 44 -7 33 -47 30 -80 -5 -38 -41 -61 -27
-33 20 10 17 22 31 26 31 4 0 8 6 8 14 0 7 11 25 25 40 19 21 33 27 58 24 l32
-3 1 -82z m268 79 c3 -5 -2 -31 -10 -58 -9 -27 -17 -55 -18 -62 -4 -20 -20
-32 -34 -23 -10 6 -10 21 3 79 13 58 20 72 35 72 10 0 21 -4 24 -8z m336 -4
c-57 -23 -75 -35 -86 -57 -17 -33 -7 -53 25 -49 19 2 25 8 24 23 -2 16 4 21
27 23 35 3 35 4 14 -47 -16 -40 -16 -40 -66 -37 -73 6 -100 54 -61 112 21 32
46 43 103 43 40 0 42 -1 20 -11z m270 2 c0 -5 -9 -10 -20 -10 -23 0 -37 -23
-46 -79 -6 -38 -26 -61 -52 -61 -6 0 -4 20 4 47 19 62 18 80 -6 88 -41 13 -18
25 50 25 40 0 70 -4 70 -10z m244 1 c9 -14 -33 -138 -48 -144 -19 -7 -28 17
-17 46 5 12 9 27 10 32 7 55 15 75 32 75 10 0 20 -4 23 -9z m351 -1 c-3 -5
-17 -10 -31 -10 -32 0 -74 -42 -74 -75 0 -21 4 -25 31 -25 27 0 30 3 25 23 -5
20 -1 23 24 25 34 3 38 -10 15 -55 -14 -29 -45 -52 -45 -35 0 5 -16 8 -35 8
-80 0 -87 97 -10 142 25 14 109 16 100 2z m419 -6 c17 -45 -7 -74 -72 -88 -17
-4 -32 -14 -32 -21 0 -14 -30 -35 -50 -35 -7 0 -8 6 -1 18 18 34 30 126 18
134 -7 4 20 8 59 8 56 0 73 -3 78 -16z m562 -16 c-3 -18 -7 -37 -9 -43 -2 -5
-8 -23 -12 -40 -4 -16 -13 -33 -19 -37 -15 -10 -38 12 -27 26 5 6 11 32 14 58
6 57 12 68 39 68 17 0 19 -4 14 -32z m172 20 c19 -19 14 -46 -9 -53 -15 -5
-18 -10 -10 -18 16 -16 14 -42 -4 -57 -13 -11 -129 -22 -146 -13 -4 1 2 20 12
41 23 45 30 100 15 106 -6 2 21 5 60 5 42 1 75 -4 82 -11z m80 -1 c8 -9 8 -25
0 -55 -6 -24 -9 -45 -6 -47 2 -3 23 -6 45 -9 l40 -4 13 53 c7 29 10 58 6 64
-5 8 14 11 63 11 38 0 73 -4 76 -10 4 -6 -7 -10 -25 -10 -39 0 -70 -16 -70
-36 0 -8 5 -12 11 -9 5 4 22 4 37 -1 27 -7 26 -7 -13 -19 -58 -17 -59 -42 0
-40 62 1 57 -10 -12 -24 -68 -13 -106 -14 -99 -2 6 9 -27 7 -98 -5 -38 -7 -39
-6 -32 17 4 13 10 41 13 62 3 21 9 40 14 43 4 2 6 11 2 19 -7 19 20 20 35 2z"/>
<path d="M3090 2093 c-47 -17 -88 -79 -91 -139 -3 -69 0 -83 26 -100 47 -30
88 4 123 103 33 90 4 158 -58 136z"/>
<path d="M4068 2058 c-8 -13 -20 -50 -27 -83 -7 -33 -17 -72 -21 -87 -5 -14
-6 -29 -3 -32 12 -12 49 -5 81 14 58 35 93 157 56 194 -23 24 -69 20 -86 -6z"/>
<path d="M3175 1536 c-23 -34 -16 -80 12 -84 27 -4 45 27 41 71 -4 40 -31 47
-53 13z"/>
<path d="M1136 1521 c-19 -21 -8 -35 18 -25 16 6 23 44 8 44 -5 0 -17 -9 -26
-19z"/>
<path d="M3020 1534 c-13 -34 -13 -34 10 -34 21 0 45 34 35 50 -11 19 -35 10
-45 -16z"/>
<path d="M3756 1553 c-14 -14 -5 -41 12 -38 9 2 20 4 25 4 4 1 7 9 7 19 0 17
-31 28 -44 15z"/>
<path d="M3733 1475 c-8 -9 -9 -16 -3 -20 16 -10 50 5 50 21 0 18 -31 18 -47
-1z"/>
</g>
</svg>
